HIERARCHY
ROOT Hips
{
	OFFSET 0.00000 0.00000 0.00000
	CHANNELS 6 Xposition Yposition Zposition Zrotation Yrotation Xrotation 
	JOINT LHipJoint
	{
		OFFSET 0 0 0
		CHANNELS 3 Zrotation Yrotation Xrotation
		JOINT LeftUpLeg
		{
			OFFSET 1.49846 -1.74315 1.08250
			CHANNELS 3 Zrotation Yrotation Xrotation
			JOINT LeftLeg
			{
				OFFSET 2.40966 -6.62050 0.00000
				CHANNELS 3 Zrotation Yrotation Xrotation
				JOINT LeftFoot
				{
					OFFSET 2.68066 -7.36505 0.00000
					CHANNELS 3 Zrotation Yrotation Xrotation
					JOINT LeftToeBase
					{
						OFFSET 0.14291 -0.39265 2.35870
						CHANNELS 3 Zrotation Yrotation Xrotation
						End Site
						{
							OFFSET 0.00000 -0.00000 1.20470
						}
					}
				}
			}
		}
	}
	JOINT RHipJoint
	{
		OFFSET 0 0 0
		CHANNELS 3 Zrotation Yrotation Xrotation
		JOINT RightUpLeg
		{
			OFFSET -1.46318 -1.74316 1.08250
			CHANNELS 3 Zrotation Yrotation Xrotation
			JOINT RightLeg
			{
				OFFSET -2.39759 -6.58734 0.00000
				CHANNELS 3 Zrotation Yrotation Xrotation
				JOINT RightFoot
				{
					OFFSET -2.63570 -7.24154 0.00000
					CHANNELS 3 Zrotation Yrotation Xrotation
					JOINT RightToeBase
					{
						OFFSET -0.17578 -0.48294 2.47180
						CHANNELS 3 Zrotation Yrotation Xrotation
						End Site
						{
							OFFSET -0.00000 -0.00000 1.26600
						}
					}
				}
			}
		}
	}
	JOINT LowerBack
	{
		OFFSET 0 0 0
		CHANNELS 3 Zrotation Yrotation Xrotation
		JOINT Spine
		{
			OFFSET 0.00843 2.19877 -0.20423
			CHANNELS 3 Zrotation Yrotation Xrotation
			JOINT Spine1
			{
				OFFSET -0.03080 2.21436 -0.05138
				CHANNELS 3 Zrotation Yrotation Xrotation
				JOINT Neck
				{
					OFFSET 0 0 0
					CHANNELS 3 Zrotation Yrotation Xrotation
					JOINT Neck1
					{
						OFFSET -0.04063 1.58841 0.30440
						CHANNELS 3 Zrotation Yrotation Xrotation
						JOINT Head
						{
							OFFSET 0.09277 1.59484 -0.39337
							CHANNELS 3 Zrotation Yrotation Xrotation
							End Site
							{
								OFFSET 0.03488 1.66530 -0.17040
							}
						}
					}
				}
				JOINT LeftShoulder
				{
					OFFSET 0 0 0
					CHANNELS 3 Zrotation Yrotation Xrotation
					JOINT LeftArm
					{
						OFFSET 3.03849 1.31522 0.02556
						CHANNELS 3 Zrotation Yrotation Xrotation
						JOINT LeftForeArm
						{
							OFFSET 5.25537 -0.00000 0.00000
							CHANNELS 3 Zrotation Yrotation Xrotation
							JOINT LeftHand
							{
								OFFSET 3.38855 -0.00000 -0.00000
								CHANNELS 3 Zrotation Yrotation Xrotation
								JOINT LeftFingerBase
								{
									OFFSET 0 0 0
									CHANNELS 3 Zrotation Yrotation Xrotation
									JOINT LeftHandIndex1
									{
										OFFSET 0.61452 -0.00000 0.00000
										CHANNELS 3 Zrotation Yrotation Xrotation
										End Site
										{
											OFFSET 0.49544 -0.00000 0.00000
										}
									}
								}
								JOINT LThumb
								{
									OFFSET 0 0 0
									CHANNELS 3 Zrotation Yrotation Xrotation
									End Site
									{
										OFFSET 0.50300 -0.00000 0.50300
									}
								}
							}
						}
					}
				}
				JOINT RightShoulder
				{
					OFFSET 0 0 0
					CHANNELS 3 Zrotation Yrotation Xrotation
					JOINT RightArm
					{
						OFFSET -3.06926 1.12091 -0.13185
						CHANNELS 3 Zrotation Yrotation Xrotation
						JOINT RightForeArm
						{
							OFFSET -5.38183 -0.00000 0.00000
							CHANNELS 3 Zrotation Yrotation Xrotation
							JOINT RightHand
							{
								OFFSET -3.16988 -0.00000 0.00000
								CHANNELS 3 Zrotation Yrotation Xrotation
								JOINT RightFingerBase
								{
									OFFSET 0 0 0
									CHANNELS 3 Zrotation Yrotation Xrotation
									JOINT RightHandIndex1
									{
										OFFSET -0.63768 -0.00000 0.00000
										CHANNELS 3 Zrotation Yrotation Xrotation
										End Site
										{
											OFFSET -0.51411 -0.00000 0.00000
										}
									}
								}
								JOINT RThumb
								{
									OFFSET 0 0 0
									CHANNELS 3 Zrotation Yrotation Xrotation
									End Site
									{
										OFFSET -0.52196 -0.00000 0.52196
									}
								}
							}
						}
					}
				}
			}
		}
	}
}
MOTION
Frames: 7
Frame Time: .0083333
8.2571 15.4992 29.6244 0 0 0 0 0 0 -21 0 0 0 0 0 0 0 0 0 0 0 0 0 0 21 0 0 0 0 0 0 0 0 0 0 0 0 0 0 0 0 0 0 0 0 0 0 -16 0 0 21 0 0 11 0 0 0 -8 0 0 0 0 0 0 0 0 0 0 0 0 0 0 0 0 0 0 0 0 8 0 0 0 0 0 0 0 0 0 0 0 0 0 0 0 0 0
8.2571 15.4992 29.6244 177.8070 -9.1242 -178.8580 0.0000 0.0000 0.0000 -8.3830 -5.8573 -28.0406 7.5365 15.7675 50.8753 1.1996 -0.3110 -20.6134 0.6485 -5.1514 -14.3410 0.0000 0.0000 0.0000 4.0822 -7.1553 -27.4396 -7.7293 -15.9165 51.5817 -1.0074 -9.7845 -24.8672 -0.5593 4.7905 -13.3119 1.1055 -0.4232 10.2085 -1.1913 -0.7084 2.6755 -1.7639 -0.4507 -2.9650 1.2094 5.9207 -31.4471 1.0716 7.3680 24.8412 1.7146 3.4320 13.5852 -0.0000 -0.0000 0.0000 -5.4727 -56.1130 -23.0241 46.9696 -51.6977 -23.7746 -0.0000 -0.0000 2.2258 -54.3348 8.0493 -11.0406 -7.1250 0.0000 -0.0000 -46.1550 21.1090 44.8761 -0.0000 -0.0000 0.0000 6.3732 54.8172 -28.6022 -43.1910 49.8508 -20.8466 0.0000 0.0000 4.3185 45.1927 -4.2674 -4.2842 7.1250 -0.0000 -0.0000 45.7005 -25.1167 34.7969
8.2579 15.5092 29.6238 177.8150 -9.1734 -178.8430 0.0000 0.0000 0.0000 -8.3893 -5.8844 -27.9646 7.4899 15.7310 50.7039 1.1934 -0.3392 -20.5510 0.6409 -5.1218 -14.2563 0.0000 0.0000 0.0000 4.1259 -7.1276 -27.3383 -7.6831 -15.8811 51.4129 -1.0018 -9.8601 -24.8847 -0.5475 4.7402 -13.1691 1.1038 -0.4523 10.1848 -1.1549 -0.7453 2.6792 -1.7208 -0.4686 -2.9491 1.2663 6.0502 -31.4082 0.9033 7.5819 24.8185 1.6803 3.5045 13.5782 0.0000 -0.0000 0.0000 -6.4848 -55.9005 -22.8331 48.5200 -52.3809 -24.9970 -0.0000 -0.0000 2.7348 -54.9635 8.1830 -11.4751 -7.1250 0.0000 -0.0000 -46.0118 20.4860 45.9002 0.0000 -0.0000 0.0000 7.1272 55.0218 -28.9454 -44.3859 50.4641 -21.7641 0.0000 0.0000 4.6899 45.4506 -4.3385 -4.3945 7.1250 -0.0000 -0.0000 45.7397 -25.0212 35.0757
8.2584 15.5195 29.6238 177.7740 -9.2216 -178.8040 0.0000 0.0000 0.0000 -8.4515 -5.9184 -27.9155 7.4486 15.6983 50.5513 1.1871 -0.3621 -20.4882 0.6301 -5.0793 -14.1348 0.0000 0.0000 0.0000 4.1076 -7.1278 -27.2736 -7.6407 -15.8486 51.2581 -0.9958 -9.9112 -24.8796 -0.5493 4.7478 -13.1907 1.0732 -0.4725 10.1605 -1.1566 -0.7748 2.6758 -1.7017 -0.4828 -2.9401 1.3967 6.1822 -31.3914 0.7193 7.7683 24.8266 1.6247 3.5688 13.5934 0.0000 -0.0000 0.0000 -7.3245 -55.7290 -22.6779 49.9805 -52.9876 -26.1586 -0.0000 -0.0000 3.1726 -54.9001 8.1266 -11.3726 -7.1250 0.0000 -0.0000 -46.0035 20.4867 45.8712 0.0000 -0.0000 0.0000 7.9063 55.0568 -29.0790 -45.6384 51.0774 -22.7344 0.0000 0.0000 4.8743 45.2042 -4.6998 -4.7174 7.1250 -0.0000 -0.0000 45.9082 -25.5591 34.2784
8.2581 15.5281 29.6254 177.7850 -9.2298 -178.7570 0.0000 0.0000 0.0000 -8.4546 -5.9209 -27.9053 7.4104 15.6680 50.4100 1.1803 -0.3624 -20.4288 0.6238 -5.0541 -14.0628 0.0000 0.0000 0.0000 4.1458 -7.0869 -27.2368 -7.5997 -15.8168 51.1077 -0.9888 -9.9573 -24.8612 -0.5431 4.7214 -13.1157 1.1269 -0.4713 10.1426 -1.1784 -0.7663 2.6506 -1.7557 -0.4781 -2.9570 1.5396 6.2796 -31.2928 0.5793 7.8848 24.7807 1.5661 3.6132 13.5698 -0.0000 0.0000 0.0000 -7.8553 -55.6418 -22.5731 51.0290 -53.4022 -26.9981 -0.0000 -0.0000 3.2501 -55.1650 8.1440 -11.5058 -7.1250 0.0000 -0.0000 -45.9198 20.1569 46.3763 -0.0000 0.0000 0.0000 8.6104 55.0217 -29.1629 -46.8126 51.6262 -23.6514 0.0000 0.0000 5.1525 45.4192 -4.7693 -4.8226 7.1250 -0.0000 -0.0000 45.9464 -25.4925 34.4945
8.2581 15.5368 29.6267 177.7740 -9.2588 -178.7170 0.0000 0.0000 0.0000 -8.4808 -5.9424 -27.8787 7.3741 15.6390 50.2753 1.1745 -0.3709 -20.3754 0.6164 -5.0247 -13.9789 0.0000 0.0000 0.0000 4.1592 -7.0667 -27.1897 -7.5610 -15.7867 50.9655 -0.9833 -10.0012 -24.8545 -0.5388 4.7029 -13.0632 1.1481 -0.4804 10.1310 -1.1910 -0.7759 2.6401 -1.7796 -0.4826 -2.9622 1.6427 6.3757 -31.2263 0.4523 8.0145 24.7376 1.5228 3.6613 13.5511 -0.0000 0.0000 0.0000 -8.4580 -55.5247 -22.4755 52.2036 -53.8465 -27.9438 -0.0000 -0.0000 3.4056 -55.2955 8.1685 -11.5940 -7.1250 0.0000 -0.0000 -45.8865 20.0161 46.5982 -0.0000 0.0000 0.0000 9.2976 55.0186 -29.2760 -48.0406 52.1740 -24.6178 0.0000 0.0000 5.4612 45.5312 -4.8551 -4.9279 7.1250 -0.0000 -0.0000 45.9899 -25.5090 34.5456
8.2580 15.5448 29.6286 177.7650 -9.2886 -178.6770 0.0000 0.0000 0.0000 -8.5046 -5.9675 -27.8635 7.3423 15.6135 50.1572 1.1693 -0.3757 -20.3283 0.6101 -4.9992 -13.9064 0.0000 0.0000 0.0000 4.1711 -7.0504 -27.1525 -7.5254 -15.7588 50.8346 -0.9786 -10.0380 -24.8474 -0.5346 4.6850 -13.0122 1.1767 -0.4869 10.1256 -1.2089 -0.7815 2.6319 -1.8137 -0.4854 -2.9686 1.7293 6.4544 -31.1541 0.3531 8.1180 24.6818 1.4872 3.7012 13.5240 0.0000 -0.0000 0.0000 -8.9646 -55.4381 -22.4160 53.2443 -54.2230 -28.7862 -0.0000 -0.0000 3.4876 -55.3580 8.1974 -11.6601 -7.1250 0.0000 -0.0000 -45.8796 19.9739 46.6745 0.0000 -0.0000 0.0000 9.9311 54.9868 -29.3722 -49.2356 52.6825 -25.5650 0.0000 0.0000 5.8140 45.6486 -4.8772 -4.9704 7.1250 -0.0000 -0.0000 46.0017 -25.4547 34.6850
